<svg width="34" height="100" viewBox="0 0 34 100" fill="none" xmlns="http://www.w3.org/2000/svg">
<path d="M1.66669 80H31.6667V98.3333H1.66669V80Z" fill="#6D6E71"/>
<path d="M31.6667 41.6667C31.6626 37.1086 28.5791 33.1283 24.1667 31.9849C22.6986 31.6056 21.6716 30.284 21.6667 28.7687V8.33334H11.6667V28.7687C11.6618 30.284 10.6348 31.6056 9.16669 31.9849C4.75425 33.1283 1.67076 37.1086 1.66669 41.6667V53.3333H31.6667V41.6667Z" fill="#6D6E71"/>
<path d="M11.6667 1.66666H21.6667V8.33332H11.6667V1.66666Z" fill="#8B5E3C"/>
<path d="M1.66669 53.3333H31.6667V80H1.66669V53.3333Z" fill="#5EAC24"/>
<path d="M24.5898 30.3719C23.855 30.1855 23.339 29.5264 23.3333 28.7687V1.66667C23.3333 0.746256 22.5871 0 21.6667 0H11.6667C10.7463 0 10 0.746256 10 1.66667V28.7687C9.9943 29.5272 9.47673 30.1855 8.74186 30.3719C3.59456 31.7049 -0.000813664 36.3493 1.38123e-07 41.6667V98.3333C1.38123e-07 99.2537 0.746257 100 1.66667 100H31.6667C32.5871 100 33.3333 99.2537 33.3333 98.3333V41.6667C33.3333 36.3493 29.738 31.7041 24.5898 30.3719ZM13.3333 3.33333H20V6.66667H13.3333V3.33333ZM30 78.3333H3.33333V55H30V78.3333ZM3.33333 96.6667V81.6667H30V96.6667H3.33333ZM30 51.6667H3.33333V41.6667C3.33171 37.8678 5.89925 34.5492 9.57682 33.597C11.7822 33.0306 13.3268 31.0457 13.3333 28.7687V10H20V28.7687C20.0041 31.0465 21.5487 33.0347 23.7549 33.6019C27.4308 34.5532 29.9992 37.8695 30 41.6667V51.6667Z" fill="#231F20"/>
</svg>
